<?xml version="1.0" encoding="UTF-8"?>
<svg id="Layer_1" xmlns="http://www.w3.org/2000/svg" xmlns:xlink="http://www.w3.org/1999/xlink" viewBox="0 0 1920 1080"><defs>
<linearGradient id="linear-gradient" x1="946.86" y1="-46.42" x2="946.86" y2="614.29" gradientUnits="userSpaceOnUse"><stop offset="0" stop-color="#91e0ff"/>
<stop offset="1" stop-color="#c3e7ff"/>
</linearGradient></defs><rect x="-103.93" y="-6.17" width="2101.58" height="759.94" fill="url(#linear-gradient)"/>
<path d="M1985.55,248.37c-10.34-12.35-78.51-91.1-182.47-84.54-89.5,5.65-169.82,72.27-205.98,170.11-20.15-15.55-38.28-20.16-49.85-21.65-50.51-6.51-103.51,30.09-136.38,91.76-11.42-9.92-36.15-28.31-70.54-30.93-73.73-5.62-120.43,66.69-123.21,71.14-3.7-2.9-31.48-23.95-63.96-13.4-30.63,9.94-52.68,43.85-52.67,83.51h937.76c2.33-8.74,39.13-156.3-52.71-265.99Z" fill="#fff"/>
<path d="M185.2,363c9.88-8.54,75-62.94,174.31-58.41,85.5,3.9,162.23,49.93,196.78,117.53,19.25-10.74,36.57-13.93,47.62-14.96,48.25-4.5,98.89,20.79,130.29,63.4,10.91-6.85,34.53-19.56,67.39-21.37,70.44-3.88,115.05,46.08,117.71,49.15,3.53-2,30.08-16.54,61.1-9.26,29.26,6.87,50.32,30.3,50.32,57.7H134.85c-2.22-6.04-37.38-107.99,50.35-183.78Z" fill="#c5f3ff"/>
<path d="M-154.72,332.11c10.54-11.48,79.99-84.68,185.91-78.58,91.19,5.25,173.03,67.17,209.87,158.12,20.53-14.45,39-18.74,50.79-20.12,51.46-6.05,105.47,27.97,138.96,85.29,11.64-9.22,36.83-26.31,71.87-28.75,75.12-5.22,122.71,61.99,125.54,66.12,3.77-2.69,32.08-22.26,65.17-12.46,31.21,9.24,53.67,40.76,53.67,77.62H-208.43c-2.37-8.13-39.87-145.28,53.7-247.25Z" fill="#fff"/>
<path d="M2093.68,372.32c-11.97-8.54-90.85-62.94-211.16-58.41-103.58,3.9-196.52,49.93-238.37,117.53-23.32-10.74-44.3-13.93-57.69-14.96-58.45-4.5-119.79,20.79-157.83,63.4-13.22-6.85-41.83-19.56-81.63-21.37-85.33-3.88-139.37,46.08-142.59,49.15-4.28-2-36.43-16.54-74.02-9.26-35.45,6.87-60.96,30.3-60.95,57.7h1085.24c2.69-6.04,45.29-107.99-61-183.78Z" fill="#c5f3ff"/><rect x="-106.81" y="545.81" width="2105.42" height="539.53" fill="#537f5e"/>
<path d="M-1.39,950.22c-14.33-17.73-29.33-35.65-45.04-53.66-8.35-9.57-16.66-18.9-24.92-28,19.91,1.73,49.67,8.03,79.54,30.33,8.03,5.99,15.03,12.37,21.08,18.66-4.96-8.51-16.82-31.39-13.42-59.49,2.7-22.27,14.49-43.71,20.12-41.99,4.62,1.41,2.59,17.62,6.71,41.99,4.15,24.59,12.25,43.83,19.17,57.16-6.25-22.64-.16-45,12.46-53.66,9.3-6.38,19.52-3.52,23-2.33-3.39,14.42-8,30.6-14.37,47.83-4.65,12.56-9.55,23.84-14.37,33.83" fill="#63a872"/>
<path d="M1862.94,860.37c13.07-14.57,26.75-29.28,41.07-44.08,7.61-7.87,15.19-15.53,22.72-23-18.16,1.42-45.3,6.6-72.54,24.92-7.32,4.92-13.7,10.16-19.23,15.33,4.52-6.99,15.34-25.79,12.23-48.87-2.46-18.3-13.21-35.91-18.35-34.5-4.22,1.16-2.36,14.47-6.12,34.5-3.79,20.2-11.17,36.01-17.48,46.96,5.7-18.6.15-36.97-11.36-44.08-8.48-5.24-17.8-2.89-20.97-1.92,3.09,11.84,7.3,25.14,13.11,39.29,4.24,10.32,8.71,19.58,13.11,27.79" fill="#63a872"/><path d="M1589.45,988.78c8.04-8.96,16.46-18.02,25.27-27.12,4.68-4.84,9.35-9.56,13.98-14.15-11.17.87-27.87,4.06-44.63,15.33-4.5,3.03-8.43,6.25-11.83,9.43,2.78-4.3,9.44-15.87,7.53-30.07-1.51-11.26-8.13-22.09-11.29-21.23-2.59.71-1.45,8.9-3.76,21.23-2.33,12.43-6.88,22.15-10.75,28.89,3.51-11.44.09-22.75-6.99-27.12-5.22-3.22-10.95-1.78-12.9-1.18,1.9,7.29,4.49,15.47,8.07,24.17,2.61,6.35,5.36,12.05,8.07,17.1" fill="#63a872"/>
<path d="M412.05,1028.64c-8.72-14.66-17.85-29.47-27.41-44.37-5.08-7.92-10.14-15.63-15.17-23.15,12.12,1.43,30.23,6.64,48.41,25.08,4.89,4.96,9.15,10.23,12.83,15.43-3.02-7.04-10.24-25.95-8.17-49.19,1.64-18.42,8.82-36.14,12.25-34.72,2.81,1.16,1.58,14.57,4.08,34.72,2.53,20.33,7.46,36.24,11.67,47.26-3.81-18.72-.1-37.21,7.58-44.37,5.66-5.28,11.88-2.91,14-1.93-2.06,11.92-4.87,25.3-8.75,39.55-2.83,10.38-5.81,19.71-8.75,27.97" fill="#63a872"/><path d="M32.25,656.25c-7.77-25.09-15.92-50.44-24.44-75.93-4.53-13.55-9.04-26.75-13.52-39.62,10.81,2.44,13.98,14.78,30.19,46.33,4.36,8.48,14.92,39.96,18.21,48.87-2.69-12.04-2.92-70.29-1.08-110.06,1.46-31.52,7.86-61.85,10.92-59.43,2.51,1.99,1.41,24.93,3.64,59.43,2.25,34.8,6.65,62.03,10.4,80.89-3.39-32.04,18.14-61.11,24.99-73.37,5.05-9.03,15.36-35.22,17.25-33.54-1.84,20.4-27.34,70.98-30.8,95.35-2.52,17.77-9.71,47.67-12.32,61.81" fill="#63a872"/>
<path d="M223.77,1009.54c2.86-11.37,5.97-22.94,9.36-34.67,1.8-6.23,3.64-12.34,5.49-18.31-8.2,3.94-19.78,11.75-28.44,27.86-2.33,4.33-4.15,8.7-5.57,12.89.55-5.16,1.4-18.83-5.25-32.86-5.27-11.12-14.28-20.42-16.38-18.67-1.72,1.43,2.15,9.52,4.89,22.77,2.77,13.37,2.86,24.57,2.36,32.53-1.51-12.68-8.25-23.33-15.25-25.89-5.16-1.88-9.01,1.16-10.28,2.31,4.11,6.95,9.08,14.63,14.99,22.57,4.31,5.79,8.49,10.89,12.41,15.32" fill="#63a872"/>
<path d="M1956.03,610.14c2.86-11.37,5.97-22.94,9.36-34.67,1.8-6.23,9.32-19.85,11.18-25.82-8.2,3.94-25.46,19.27-34.13,35.38-2.33,4.33-4.15,8.7-5.57,12.89.55-5.16,1.4-18.83-5.25-32.86-5.27-11.12-18.12-33.45-20.21-31.7-1.72,1.43,5.98,22.54,8.73,35.8,2.77,13.37,2.86,24.57,2.36,32.53-1.51-12.68-9.84-16.9-16.84-19.45-5.16-1.88-34.19-26.06-35.46-24.92,4.11,6.95,35.85,35.41,41.76,43.36,4.31,5.79,8.49,10.89,12.41,15.32" fill="#63a872"/>
<path d="M1746,607.64c-5.35-10.73-11.01-21.6-17-32.59-3.18-5.84-6.37-11.54-9.55-17.11,9.42,2.46,23.18,8.17,35.6,22.57,3.34,3.87,6.15,7.87,8.52,11.75-1.65-5-5.37-18.33-1.3-33.33,3.23-11.89,10.75-22.63,13.31-21.26,2.1,1.12-.28,9.76-.41,23.32-.13,13.67,2.09,24.74,4.26,32.51-1.04-12.77,3.82-24.45,10.63-28.18,5.02-2.75,9.69-.41,11.26.5-2.88,7.57-6.5,16-11.05,24.87-3.32,6.46-6.65,12.21-9.84,17.27" fill="#63a872"/>
<path d="M-41.64,697.23c10.42-16.16,35.28-19.44,52.71-15.33,20.5,4.83,19.78,17.3,41.21,21.08,17.03,3.01,25.82-3.4,35.46,3.83,6.98,5.24,12.95,16.54,9.58,23.96-6,13.24-35.15-.4-103.5,2.87-16.13.77-30.63,2.3-37.37-6.71-6.06-8.1-3.42-21.44,1.92-29.71Z" fill="#9fada2"/>
<path d="M1974.57,991.18c-13.1-16.16-44.34-19.44-66.24-15.33-25.77,4.83-24.87,17.3-51.79,21.08-21.4,3.01-32.45-3.4-44.56,3.83-8.77,5.24-16.27,16.54-12.04,23.96,7.55,13.24,44.17-.4,130.08,2.87,20.27.77,38.49,2.3,46.97-6.71,7.62-8.1,4.29-21.44-2.41-29.71Z" fill="#9fada2"/>
<path d="M1805.71,599.33c-6.29-11.59-21.31-13.94-31.83-11-12.38,3.46-11.95,12.41-24.89,15.12-10.28,2.16-15.6-2.44-21.41,2.75-4.21,3.76-7.82,11.86-5.79,17.18,3.63,9.49,21.23-.29,62.51,2.06,9.74.55,18.5,1.65,22.57-4.81,3.66-5.81,2.06-15.37-1.16-21.31Z" fill="#9fada2"/>
<path d="M390.71,1010.38c5.41-11.59,18.32-13.94,27.38-11,10.65,3.46,10.28,12.41,21.4,15.12,8.84,2.16,13.41-2.44,18.42,2.75,3.62,3.76,6.73,11.86,4.98,17.18-3.12,9.49-18.26-.29-53.76,2.06-8.38.55-15.91,1.65-19.41-4.81-3.15-5.81-1.77-15.37,1-21.31Z" fill="#9fada2"/></svg>