<svg width="241" height="89" viewBox="0 0 241 89" fill="none" xmlns="http://www.w3.org/2000/svg">
<g clip-path="url(#clip0_153_12)">
<path d="M0.734178 80.5888C-4.03256 67.3421 15.3267 35.4928 34.6323 28.5829C38.0925 27.3457 42.2269 26.6668 48.1928 22.8648C60.56 14.9892 60.0231 6.93258 68.5305 3.43232C78.1355 -0.513009 81.2855 8.74305 95.6454 6.29137C105.31 4.64685 105.191 0.233813 113.269 0.00750346C121.46 -0.218806 127.7 4.14142 138.128 11.4361C150.12 19.8247 149.452 22.5706 156.205 25.1505C167.498 29.4655 169.765 21.9294 181.512 25.1505C193.85 28.5301 194.733 37.7559 209.081 41.1506C216.896 42.9988 217.856 40.5546 222.641 42.863C233.964 48.3321 243.826 69.3865 239.817 80.5812C235.432 92.8246 216.043 88.8114 134.06 86.2993C109.653 85.5525 97.4471 85.1753 89.769 85.1527C24.7647 84.9792 4.80291 91.8816 0.734178 80.5812V80.5888Z" fill="#774D45"/>
<path d="M0.733883 80.5888C4.80261 91.8892 24.7645 84.9868 89.7687 85.1603C97.4468 85.1829 109.653 85.5526 134.059 86.3069C216.043 88.819 235.432 92.8397 239.817 80.5888C242.251 73.7995 239.572 63.3818 234.567 55.0159C234.489 57.807 234.179 60.8245 233.487 64.0154C232.592 68.1267 231.303 73.7769 227.61 76.0174C223.637 78.4313 219.992 74.999 212.696 72.585C206.998 70.6991 202.416 70.7595 193.259 70.8726C177.288 71.0687 177.396 75.7986 166.591 74.8707C163.507 74.6067 156.056 71.6421 141.284 65.7278C124.025 58.8179 124.162 58.5614 121.847 58.2973C108.263 56.766 105.268 65.8259 90.2102 68.0136C73.81 70.3974 74.156 60.1229 57.2188 62.2955C43.9985 64.0003 38.3607 70.9556 24.2275 68.5793C18.6136 67.6364 14.4554 66.9348 12.0273 62.8613C9.89748 59.2931 9.81992 54.3445 10.7745 49.0337C2.80404 60.3492 -1.89707 73.2941 0.733883 80.5888Z" fill="#513D3A"/>
<path d="M62.2003 21.1524C62.0332 19.093 68.1841 16.498 72.5928 15.4343C80.1218 13.6238 89.0646 14.7101 89.3152 17.1467C89.5598 19.5381 81.476 23.4909 73.9471 24.0039C68.8045 24.3509 62.3614 23.2043 62.1943 21.1449L62.2003 21.1524Z" fill="#513D3A"/>
<path d="M126.829 42.8706C127.527 40.3736 137.788 42.9913 148.521 45.7296C159.898 48.6339 165.589 50.1351 165.696 52.5868C165.822 55.4836 158.895 59.2252 152.589 59.444C145.239 59.7005 139.602 55.1441 133.606 50.3011C130.008 47.3968 126.381 44.4623 126.829 42.8706Z" fill="#513D3A"/>
<path d="M32.3709 52.5868C32.1442 50.2407 39.1004 46.3482 45.9313 46.3029C50.0299 46.2728 55.7512 47.6231 55.8764 49.7353C56.0256 52.2775 48.0015 55.8758 40.5083 55.4534C40.0788 55.4308 32.6035 54.9555 32.3709 52.5943V52.5868Z" fill="#513D3A"/>
<path d="M126.829 19.44C127.276 17.7804 132.914 18.4367 137.221 20.0133C143.67 22.3669 150 27.7984 149.421 29.7295C148.837 31.6909 141.063 30.235 134.96 26.8705C131.309 24.8563 126.375 21.1222 126.823 19.44H126.829Z" fill="#A0836E"/>
<path d="M187.842 39.4382C188.916 37.7333 193.33 42.4481 201.85 44.583C211.24 46.9366 217.611 44.1454 218.119 46.2954C218.542 48.0908 214.461 51.5307 210.888 53.1526C205.256 55.7099 198.02 55.0687 192.811 49.7202C189.566 46.3935 186.863 40.9847 187.842 39.4307V39.4382Z" fill="#A0836E"/>
<path d="M31.9175 34.8668C31.9234 33.6749 37.1973 32.3623 47.739 29.722C57.9645 27.1647 58.8415 27.4589 59.0384 28.0096C59.635 29.6843 54.4685 35.5532 48.1924 37.7258C40.3115 40.4566 31.9115 36.9337 31.9234 34.8668H31.9175Z" fill="#A0836E"/>
<path d="M93.8373 46.2954C98.7413 47.0724 100.495 42.7197 106.038 44.0097C109.784 44.8772 113.96 48.0229 113.722 50.2935C113.292 54.2992 99.147 55.3251 88.4144 53.7259C81.7684 52.7377 74.496 51.6514 73.4996 46.8687C72.6525 42.8178 76.3871 36.5113 80.2769 36.0134C85.3777 35.3571 86.7678 45.1789 93.8373 46.3029V46.2954Z" fill="#A0836E"/>
</g>
<defs>
<clipPath id="clip0_153_12">
<rect width="240.729" height="89" fill="white"/>
</clipPath>
</defs>
</svg>
