<svg width="66" height="66" viewBox="0 0 66 66" fill="none" xmlns="http://www.w3.org/2000/svg">
<mask id="mask0_128_48" style="mask-type:alpha" maskUnits="userSpaceOnUse" x="0" y="0" width="66" height="66">
<rect width="66" height="66" fill="#D9D9D9"/>
</mask>
<g mask="url(#mask0_128_48)">
<path d="M33 60.5C29.1958 60.5 25.6208 59.7781 22.275 58.3344C18.9292 56.8906 16.0188 54.9313 13.5437 52.4563C11.0687 49.9813 9.10938 47.0708 7.66563 43.725C6.22187 40.3792 5.5 36.8042 5.5 33C5.5 29.1958 6.22187 25.6208 7.66563 22.275C9.10938 18.9292 11.0687 16.0188 13.5437 13.5437C16.0188 11.0687 18.9292 9.10938 22.275 7.66563C25.6208 6.22187 29.1958 5.5 33 5.5C36.8042 5.5 40.3792 6.22187 43.725 7.66563C47.0708 9.10938 49.9813 11.0687 52.4563 13.5437C54.9313 16.0188 56.8906 18.9292 58.3344 22.275C59.7781 25.6208 60.5 29.1958 60.5 33C60.5 34.2375 60.4313 35.4521 60.2938 36.6437C60.1563 37.8354 59.9271 39.0042 59.6063 40.15C58.9646 39.4167 58.2198 38.7979 57.3719 38.2938C56.524 37.7896 55.5958 37.4458 54.5875 37.2625C54.725 36.575 54.8281 35.876 54.8969 35.1656C54.9656 34.4552 55 33.7333 55 33C55 26.8583 52.8688 21.6563 48.6063 17.3938C44.3438 13.1313 39.1417 11 33 11C26.8583 11 21.6563 13.1313 17.3938 17.3938C13.1313 21.6563 11 26.8583 11 33C11 39.1417 13.1313 44.3438 17.3938 48.6063C21.6563 52.8688 26.8583 55 33 55C35.3375 55 37.5719 54.6562 39.7031 53.9688C41.8344 53.2812 43.7938 52.3188 45.5812 51.0813C46.1312 51.8604 46.8073 52.5479 47.6094 53.1438C48.4115 53.7396 49.2708 54.1979 50.1875 54.5188C47.85 56.3979 45.226 57.8646 42.3156 58.9188C39.4052 59.9729 36.3 60.5 33 60.5ZM52.9375 49.5C51.975 49.5 51.1615 49.1677 50.4969 48.5031C49.8323 47.8385 49.5 47.025 49.5 46.0625C49.5 45.1 49.8323 44.2865 50.4969 43.6219C51.1615 42.9573 51.975 42.625 52.9375 42.625C53.9 42.625 54.7135 42.9573 55.3781 43.6219C56.0427 44.2865 56.375 45.1 56.375 46.0625C56.375 47.025 56.0427 47.8385 55.3781 48.5031C54.7135 49.1677 53.9 49.5 52.9375 49.5ZM42.075 45.925L30.25 34.1V19.25H35.75V31.9L45.925 42.075L42.075 45.925Z" fill="#305492"/>
</g>
</svg>
